<svg width="850" height="850" viewBox="0 0 850 850" fill="none" xmlns="http://www.w3.org/2000/svg">
<g filter="url(#filter0_d)">
<path d="M27.9904 448.57C19.9519 434.647 19.9519 417.493 27.9904 403.57L207.01 93.5C215.048 79.577 229.904 71 245.981 71L604.019 71C620.096 71 634.952 79.577 642.99 93.5L822.01 403.57C830.048 417.493 830.048 434.647 822.01 448.57L642.99 758.641C634.952 772.564 620.096 781.141 604.019 781.141L245.981 781.141C229.904 781.141 215.048 772.564 207.01 758.641L27.9904 448.57Z" fill="#303238"/>
</g>
<g filter="url(#filter1_d)">
<path d="M70.5346 462.01C62.9627 448.895 59.1767 442.337 57.6949 435.366C56.3837 429.197 56.3837 422.822 57.6949 416.654C59.1767 409.682 62.9627 403.125 70.5346 390.01L216.465 137.25C224.037 124.135 227.823 117.578 233.12 112.809C237.806 108.589 243.327 105.401 249.325 103.453C256.103 101.25 263.675 101.25 278.819 101.25L570.681 101.25C585.825 101.25 593.397 101.25 600.175 103.453C606.173 105.401 611.694 108.589 616.38 112.809C621.677 117.578 625.463 124.135 633.035 137.25L778.965 390.01C786.537 403.125 790.323 409.682 791.805 416.654C793.116 422.822 793.116 429.197 791.805 435.366C790.323 442.337 786.537 448.895 778.965 462.01L633.035 714.769C625.463 727.884 621.677 734.442 616.38 739.211C611.694 743.43 606.173 746.618 600.175 748.567C593.397 750.769 585.825 750.769 570.681 750.769L278.819 750.769C263.675 750.769 256.103 750.769 249.325 748.567C243.327 746.618 237.806 743.43 233.12 739.211C227.823 734.442 224.037 727.884 216.465 714.769L70.5346 462.01Z" fill="url(#paint0_linear)"/>
</g>
<g filter="url(#filter2_i)">
<path d="M170.537 462.407C162.965 449.292 159.179 442.735 157.697 435.763C156.386 429.595 156.386 423.22 157.697 417.051C159.179 410.08 162.965 403.522 170.537 390.407L266.468 224.25C274.04 211.135 277.825 204.578 283.122 199.809C287.809 195.589 293.33 192.401 299.327 190.453C306.106 188.25 313.678 188.25 328.821 188.25H520.683C535.827 188.25 543.399 188.25 550.177 190.453C556.175 192.401 561.696 195.589 566.382 199.809C571.679 204.578 575.465 211.135 583.037 224.25L678.968 390.407C686.539 403.522 690.325 410.08 691.807 417.051C693.118 423.22 693.118 429.595 691.807 435.763C690.325 442.735 686.539 449.292 678.968 462.407L583.037 628.564C575.465 641.679 571.679 648.237 566.382 653.006C561.696 657.225 556.175 660.413 550.177 662.362C543.399 664.564 535.827 664.564 520.683 664.564L328.821 664.564C313.678 664.564 306.106 664.564 299.327 662.362C293.33 660.413 287.809 657.225 283.122 653.006C277.825 648.237 274.04 641.679 266.468 628.564L170.537 462.407Z" fill="#303238"/>
</g>
<path d="M425 286L565 426L425 566L285 426L425 286Z" fill="#303238"/>
<path d="M315.901 504L262.801 434.25V504H224.326V346.05H262.801V415.35L315.451 346.05H360.676L299.476 423.45L362.926 504H315.901ZM494.836 346.05V376.875H452.986V504H414.511V376.875H372.661V346.05H494.836ZM571.296 505.575C559.746 505.575 549.396 503.7 540.246 499.95C531.096 496.2 523.746 490.65 518.196 483.3C512.796 475.95 509.946 467.1 509.646 456.75H550.596C551.196 462.6 553.221 467.1 556.671 470.25C560.121 473.25 564.621 474.75 570.171 474.75C575.871 474.75 580.371 473.475 583.671 470.925C586.971 468.225 588.621 464.55 588.621 459.9C588.621 456 587.271 452.775 584.571 450.225C582.021 447.675 578.796 445.575 574.896 443.925C571.146 442.275 565.746 440.4 558.696 438.3C548.496 435.15 540.171 432 533.721 428.85C527.271 425.7 521.721 421.05 517.071 414.9C512.421 408.75 510.096 400.725 510.096 390.825C510.096 376.125 515.421 364.65 526.071 356.4C536.721 348 550.596 343.8 567.696 343.8C585.096 343.8 599.121 348 609.771 356.4C620.421 364.65 626.121 376.2 626.871 391.05H585.246C584.946 385.95 583.071 381.975 579.621 379.125C576.171 376.125 571.746 374.625 566.346 374.625C561.696 374.625 557.946 375.9 555.096 378.45C552.246 380.85 550.821 384.375 550.821 389.025C550.821 394.125 553.221 398.1 558.021 400.95C562.821 403.8 570.321 406.875 580.521 410.175C590.721 413.625 598.971 416.925 605.271 420.075C611.721 423.225 617.271 427.8 621.921 433.8C626.571 439.8 628.896 447.525 628.896 456.975C628.896 465.975 626.571 474.15 621.921 481.5C617.421 488.85 610.821 494.7 602.121 499.05C593.421 503.4 583.146 505.575 571.296 505.575Z" fill="#FAFAFA"/>
<defs>
<filter id="filter0_d" x="17.9615" y="71" width="814.077" height="718.141" filterUnits="userSpaceOnUse" color-interpolation-filters="sRGB">
<feFlood flood-opacity="0" result="BackgroundImageFix"/>
<feColorMatrix in="SourceAlpha" type="matrix" values="0 0 0 0 0 0 0 0 0 0 0 0 0 0 0 0 0 0 127 0"/>
<feOffset dy="4"/>
<feGaussianBlur stdDeviation="2"/>
<feColorMatrix type="matrix" values="0 0 0 0 0 0 0 0 0 0 0 0 0 0 0 0 0 0 0.25 0"/>
<feBlend mode="normal" in2="BackgroundImageFix" result="effect1_dropShadow"/>
<feBlend mode="normal" in="SourceGraphic" in2="effect1_dropShadow" result="shape"/>
</filter>
<filter id="filter1_d" x="52.7115" y="101.25" width="744.077" height="657.519" filterUnits="userSpaceOnUse" color-interpolation-filters="sRGB">
<feFlood flood-opacity="0" result="BackgroundImageFix"/>
<feColorMatrix in="SourceAlpha" type="matrix" values="0 0 0 0 0 0 0 0 0 0 0 0 0 0 0 0 0 0 127 0"/>
<feOffset dy="4"/>
<feGaussianBlur stdDeviation="2"/>
<feColorMatrix type="matrix" values="0 0 0 0 0 0 0 0 0 0 0 0 0 0 0 0 0 0 0.25 0"/>
<feBlend mode="normal" in2="BackgroundImageFix" result="effect1_dropShadow"/>
<feBlend mode="normal" in="SourceGraphic" in2="effect1_dropShadow" result="shape"/>
</filter>
<filter id="filter2_i" x="156.714" y="188.25" width="536.077" height="480.314" filterUnits="userSpaceOnUse" color-interpolation-filters="sRGB">
<feFlood flood-opacity="0" result="BackgroundImageFix"/>
<feBlend mode="normal" in="SourceGraphic" in2="BackgroundImageFix" result="shape"/>
<feColorMatrix in="SourceAlpha" type="matrix" values="0 0 0 0 0 0 0 0 0 0 0 0 0 0 0 0 0 0 127 0" result="hardAlpha"/>
<feOffset dy="4"/>
<feGaussianBlur stdDeviation="2"/>
<feComposite in2="hardAlpha" operator="arithmetic" k2="-1" k3="1"/>
<feColorMatrix type="matrix" values="0 0 0 0 0 0 0 0 0 0 0 0 0 0 0 0 0 0 0.25 0"/>
<feBlend mode="normal" in2="shape" result="effect1_innerShadow"/>
</filter>
<linearGradient id="paint0_linear" x1="151.5" y1="255" x2="714" y2="580.5" gradientUnits="userSpaceOnUse">
<stop stop-color="#AEE9E0"/>
<stop offset="0.34375" stop-color="#A1EFD3"/>
<stop offset="0.671875" stop-color="#A2F2BC"/>
<stop offset="1" stop-color="#B1F49E"/>
</linearGradient>
</defs>
</svg>
